<svg xmlns="http://www.w3.org/2000/svg" xmlns:xlink="http://www.w3.org/1999/xlink" width="423" height="706" viewBox="0 0 423 706">
  <defs>
    <clipPath id="clip-UI_Elements_-_Icons">
      <rect width="423" height="706"/>
    </clipPath>
  </defs>
  <g id="UI_Elements_-_Icons" data-name="UI Elements - Icons" clip-path="url(#clip-UI_Elements_-_Icons)">
    <rect width="423" height="706" fill="#eaeaea"/>
    <text id="Copyright_2016-2017" data-name="Copyright © 2016-2017" transform="translate(24 680)" fill="#5a5a5a" font-size="8" font-family="ArialMT, Arial" letter-spacing="-0.013em"><tspan x="0" y="0">Copyright © 2016-2017 All rights reserved.</tspan></text>
    <path id="Options" d="M0,13.5A1.5,1.5,0,1,1,1.5,15,1.5,1.5,0,0,1,0,13.5Zm0-6A1.5,1.5,0,1,1,1.5,9,1.5,1.5,0,0,1,0,7.5Zm0-6A1.5,1.5,0,1,1,1.5,3,1.5,1.5,0,0,1,0,1.5Z" transform="translate(256 611)" fill="#fff"/>
    <g id="Facebook" transform="translate(204 610)">
      <rect id="Retângulo_547" data-name="Retângulo 547" width="16" height="16" fill="none"/>
      <path id="Caminho_1" data-name="Caminho 1" d="M85.422,16V8.711h2.489l.356-2.844H85.422V4.089c0-.8.267-1.422,1.422-1.422h1.511V.089C88,.089,87.111,0,86.133,0a3.431,3.431,0,0,0-3.644,3.733V5.867H80V8.711h2.489V16Z" transform="translate(-76)" fill="#fff" fill-rule="evenodd"/>
    </g>
    <g id="Twitter" transform="translate(159 610)">
      <rect id="Retângulo_548" data-name="Retângulo 548" width="16" height="16" fill="none"/>
      <path id="Caminho_2" data-name="Caminho 2" d="M43.067,14.978A9.25,9.25,0,0,0,52.4,5.644V5.2A7.225,7.225,0,0,0,54,3.511a7.379,7.379,0,0,1-1.867.533,3.458,3.458,0,0,0,1.422-1.778,8.153,8.153,0,0,1-2.044.8A3.175,3.175,0,0,0,49.111,2a3.34,3.34,0,0,0-3.289,3.289A1.733,1.733,0,0,0,45.911,6a9.19,9.19,0,0,1-6.756-3.467,3.4,3.4,0,0,0-.444,1.689,3.532,3.532,0,0,0,1.422,2.756,3,3,0,0,1-1.511-.444h0a3.249,3.249,0,0,0,2.667,3.2,2.74,2.74,0,0,1-.889.089,1.513,1.513,0,0,1-.622-.089,3.367,3.367,0,0,0,3.111,2.311A6.711,6.711,0,0,1,38.8,13.467a2.461,2.461,0,0,1-.8-.089,8.39,8.39,0,0,0,5.067,1.6" transform="translate(-38 -1)" fill="#fff" fill-rule="evenodd"/>
    </g>
    <g id="Instagram" transform="translate(114 610)">
      <path id="Caminho_3" data-name="Caminho 3" d="M8,1.422a24.53,24.53,0,0,1,3.2.089,4.123,4.123,0,0,1,1.511.267,3.122,3.122,0,0,1,1.511,1.511A4.123,4.123,0,0,1,14.489,4.8c0,.8.089,1.067.089,3.2a24.53,24.53,0,0,1-.089,3.2,4.123,4.123,0,0,1-.267,1.511,3.122,3.122,0,0,1-1.511,1.511,4.123,4.123,0,0,1-1.511.267c-.8,0-1.067.089-3.2.089a24.53,24.53,0,0,1-3.2-.089,4.123,4.123,0,0,1-1.511-.267,3.122,3.122,0,0,1-1.511-1.511A4.123,4.123,0,0,1,1.511,11.2c0-.8-.089-1.067-.089-3.2a24.53,24.53,0,0,1,.089-3.2,4.123,4.123,0,0,1,.267-1.511A3.192,3.192,0,0,1,2.4,2.4a1.5,1.5,0,0,1,.889-.622A4.123,4.123,0,0,1,4.8,1.511,24.53,24.53,0,0,1,8,1.422M8,0A26.264,26.264,0,0,0,4.711.089,5.488,5.488,0,0,0,2.756.444a3.48,3.48,0,0,0-1.422.889A3.48,3.48,0,0,0,.444,2.756,4.05,4.05,0,0,0,.089,4.711,26.264,26.264,0,0,0,0,8a26.264,26.264,0,0,0,.089,3.289,5.488,5.488,0,0,0,.356,1.956,3.48,3.48,0,0,0,.889,1.422,3.48,3.48,0,0,0,1.422.889,5.488,5.488,0,0,0,1.956.356A26.264,26.264,0,0,0,8,16a26.264,26.264,0,0,0,3.289-.089,5.488,5.488,0,0,0,1.956-.356,3.729,3.729,0,0,0,2.311-2.311,5.488,5.488,0,0,0,.356-1.956C15.911,10.4,16,10.133,16,8a26.264,26.264,0,0,0-.089-3.289,5.488,5.488,0,0,0-.356-1.956,3.48,3.48,0,0,0-.889-1.422A3.48,3.48,0,0,0,13.244.444,5.488,5.488,0,0,0,11.289.089,26.264,26.264,0,0,0,8,0M8,3.911A4.023,4.023,0,0,0,3.911,8,4.089,4.089,0,1,0,8,3.911m0,6.756A2.619,2.619,0,0,1,5.333,8,2.619,2.619,0,0,1,8,5.333,2.619,2.619,0,0,1,10.667,8,2.619,2.619,0,0,1,8,10.667m4.267-7.911a.978.978,0,1,0,.978.978.986.986,0,0,0-.978-.978" fill="#fff" fill-rule="evenodd"/>
    </g>
    <g id="Web" transform="translate(69 610)">
      <path id="Caminho_4" data-name="Caminho 4" d="M2.4,2.4A7.263,7.263,0,0,1,8,0a7.263,7.263,0,0,1,5.6,2.4A7.263,7.263,0,0,1,16,8a7.263,7.263,0,0,1-2.4,5.6A7.263,7.263,0,0,1,8,16a7.263,7.263,0,0,1-5.6-2.4A7.984,7.984,0,0,1,0,8,7.263,7.263,0,0,1,2.4,2.4Zm6.667,12a3.276,3.276,0,0,0,2-1.2A5.824,5.824,0,0,0,12,10.4a2.208,2.208,0,0,0-.667-1.6A2.347,2.347,0,0,0,9.6,8H8.267a3.893,3.893,0,0,1-1.2-.267,1.21,1.21,0,0,1-.4-.933.693.693,0,0,1,.267-.533A1.011,1.011,0,0,1,7.467,6a.91.91,0,0,1,.667.4c.267.133.4.267.533.267A.8.8,0,0,0,9.2,6.533.8.8,0,0,0,9.333,6a2.122,2.122,0,0,0-.667-1.333,5.515,5.515,0,0,0,.667-2.533.287.287,0,0,0-.267-.267A4.122,4.122,0,0,0,8,1.6,6.67,6.67,0,0,0,4.533,2.667a3.357,3.357,0,0,0-1.2,2.667A3.414,3.414,0,0,0,4.4,7.867,3.643,3.643,0,0,0,6.933,8.933h0v.533A1.712,1.712,0,0,0,7.467,10.8a1.942,1.942,0,0,0,1.2.8V14c0,.133,0,.133.133.267S8.933,14.4,9.067,14.4Z" fill="#fff"/>
    </g>
    <path id="Profile" d="M0,370v-2c0-2.2,3.6-4,8-4s8,1.8,8,4v2Zm4-12a4,4,0,1,1,4,4A4,4,0,0,1,4,358Z" transform="translate(24 256)" fill="#fff"/>
    <g id="Heart" transform="translate(384 571)">
      <path id="Heart-2" data-name="Heart" d="M14.746,1.3a4.3,4.3,0,0,0-6.119,0l-.6.6-.6-.6A4.327,4.327,0,0,0,1.3,7.423l6.721,6.721,6.721-6.721a4.3,4.3,0,0,0,0-6.119" transform="translate(-0.025 -0.025)" fill="#fff" fill-rule="evenodd"/>
    </g>
    <g id="Bag" transform="translate(339 570)">
      <path id="Caminho_152" data-name="Caminho 152" d="M10,7a.945.945,0,0,0,1,1,.945.945,0,0,0,1-1,.945.945,0,0,0-1-1A.945.945,0,0,0,10,7ZM4,7A.945.945,0,0,0,5,8,.945.945,0,0,0,6,7,.945.945,0,0,0,5,6,.945.945,0,0,0,4,7ZM15,4.9l1,10a1.136,1.136,0,0,1-.3.8.779.779,0,0,1-.7.3H1a.779.779,0,0,1-.7-.3,1.135,1.135,0,0,1-.3-.8l1-10A1.063,1.063,0,0,1,2,4H4a4,4,0,0,1,8,0h2A1.063,1.063,0,0,1,15,4.9ZM10,4H6a2,2,0,0,1,4,0Z" fill="#fff" fill-rule="evenodd"/>
    </g>
    <g id="Photos" transform="translate(294 570)">
      <rect id="Retângulo_549" data-name="Retângulo 549" width="16" height="16" fill="none"/>
      <path id="Caminho_148" data-name="Caminho 148" d="M14.933,0A1.018,1.018,0,0,1,15.6.267a.95.95,0,0,1,.4.8v10a1.018,1.018,0,0,1-.267.667,1.43,1.43,0,0,1-.8.267H1.067a1.43,1.43,0,0,1-.8-.267,1.43,1.43,0,0,1-.267-.8V1.067A1.018,1.018,0,0,1,.267.4a.95.95,0,0,1,.8-.4ZM4.533,2.4A1.514,1.514,0,0,0,3.467,2,1.514,1.514,0,0,0,2.4,2.4,1.514,1.514,0,0,0,2,3.467a1.514,1.514,0,0,0,.4,1.067,1.514,1.514,0,0,0,1.067.4,1.514,1.514,0,0,0,1.067-.4,1.514,1.514,0,0,0,.4-1.067A1.514,1.514,0,0,0,4.533,2.4ZM14,10,10,4,6.4,8.667,4,6.933,2,10Z" transform="translate(0 2)" fill="#fff"/>
    </g>
    <g id="Places" transform="translate(249 570)">
      <rect id="Retângulo_305" data-name="Retângulo 305" width="16" height="16" transform="translate(0 0)" fill="none"/>
      <path id="Caminho_114" data-name="Caminho 114" d="M6.6,9.5A2.8,2.8,0,0,0,9.4,6.7,2.881,2.881,0,0,0,6.6,3.8,2.8,2.8,0,0,0,3.8,6.6,2.951,2.951,0,0,0,6.6,9.5ZM1.9,1.9a6.647,6.647,0,0,1,9.4,9.4L6.6,16,1.9,11.3A6.828,6.828,0,0,1,1.9,1.9Z" transform="translate(0.975 0.05)" fill="#fff" fill-rule="evenodd"/>
    </g>
    <g id="Settings" transform="translate(204 570)">
      <rect id="Retângulo_193" data-name="Retângulo 193" width="16" height="16" fill="none"/>
      <path id="Caminho_104" data-name="Caminho 104" d="M267.5,10a2,2,0,1,0-2-2A2.006,2.006,0,0,0,267.5,10Zm-4.1-6.4a5.64,5.64,0,0,1,2.4-1.3l.8-2.3h2l.8,2.3a6.983,6.983,0,0,1,2.4,1.3l2.4-.5,1,1.8-1.6,1.8a5.7,5.7,0,0,1,.1,1.3c0,.4-.1.9-.1,1.3l1.6,1.8-1,1.8-2.4-.5a5.64,5.64,0,0,1-2.4,1.3l-.8,2.3h-2l-.8-2.3a6.983,6.983,0,0,1-2.4-1.3l-2.4.5-1-1.8,1.6-1.8a5.7,5.7,0,0,1-.1-1.3c0-.4.1-.9.1-1.3L260,4.9l1-1.8Z" transform="translate(-259)" fill="#fff" fill-rule="evenodd"/>
    </g>
    <g id="Feed" transform="translate(159 570)">
      <path id="Caminho_102" data-name="Caminho 102" d="M0,14H16v2H0ZM0,7H16v5H0ZM7,0h9V5H7ZM0,0H5V5H0Z" fill="#fff" fill-rule="evenodd"/>
    </g>
    <g id="Messages" transform="translate(114 570)">
      <rect id="Retângulo_117" data-name="Retângulo 117" width="16" height="16" fill="none"/>
      <path id="Caminho_50" data-name="Caminho 50" d="M14,2H2L8,7ZM0,2A2.006,2.006,0,0,1,2,0H14a2.006,2.006,0,0,1,2,2v8a2.006,2.006,0,0,1-2,2H2a2.006,2.006,0,0,1-2-2Z" transform="translate(0 2)" fill="#fff" fill-rule="evenodd"/>
    </g>
    <g id="Alert" transform="translate(69 570)">
      <path id="Caminho_1-2" data-name="Caminho 1" d="M15,14H10a2,2,0,0,1-4,0H1a.961.961,0,0,1-.9-.7,1.068,1.068,0,0,1,.3-1.1A4.026,4.026,0,0,0,2,9V6A6,6,0,0,1,14,6V9a4.026,4.026,0,0,0,1.6,3.2.947.947,0,0,1,.3,1.1A.961.961,0,0,1,15,14Z" transform="translate(-0.063)" fill="#fff" fill-rule="evenodd"/>
    </g>
    <g id="Comment" transform="translate(24 570)">
      <path id="Chat" d="M5,8A.945.945,0,0,0,6,9h4a1,1,0,0,0,1-1,.945.945,0,0,0-1-1H6A1,1,0,0,0,5,8ZM0,5A4.951,4.951,0,0,1,5,0h6a4.951,4.951,0,0,1,5,5V15a.945.945,0,0,1-1,1H5a4.951,4.951,0,0,1-5-5Z" fill="#fff" fill-rule="evenodd"/>
    </g>
    <g id="Explore" transform="translate(384 530)">
      <path id="Caminho_103" data-name="Caminho 103" d="M138,16a8,8,0,1,1,8-8A8.024,8.024,0,0,1,138,16Zm4-12-3.9,1.8a5.12,5.12,0,0,0-2.3,2.3L134,12l3.9-1.8a5.12,5.12,0,0,0,2.3-2.3Z" transform="translate(-130)" fill="#fff" fill-rule="evenodd"/>
    </g>
    <g id="Videos" transform="translate(344 530)">
      <rect id="Retângulo_312" data-name="Retângulo 312" width="16" height="16" fill="none"/>
      <path id="Caminho_123" data-name="Caminho 123" d="M16,.4V9.733a.287.287,0,0,1-.267.267H15.6c-.133,0-.133,0-.267-.133L12,6.533V9.067c0,.267-.133.4-.267.667a1.43,1.43,0,0,1-.8.267H1.067A1.018,1.018,0,0,1,.4,9.733c-.267-.267-.4-.4-.4-.667v-8A1.018,1.018,0,0,1,.267.4a.95.95,0,0,1,.8-.4h10a1.018,1.018,0,0,1,.667.267,1.9,1.9,0,0,1,.267.8V3.6L15.467.133C15.467,0,15.6,0,15.733,0,15.867.133,16,.133,16,.4Z" transform="translate(0 3)" fill="#fff"/>
    </g>
    <g id="Search" transform="translate(304 530)">
      <path id="Caminho_2-2" data-name="Caminho 2" d="M2,7A4.951,4.951,0,0,1,7,2a4.951,4.951,0,0,1,5,5,4.951,4.951,0,0,1-5,5A4.951,4.951,0,0,1,2,7Zm12.3,8.7a.99.99,0,0,0,1.4-1.4l-3.1-3.1A6.847,6.847,0,0,0,14,7,6.957,6.957,0,0,0,7,0,6.957,6.957,0,0,0,0,7a6.957,6.957,0,0,0,7,7,6.847,6.847,0,0,0,4.2-1.4Z" fill="#fff"/>
    </g>
    <g id="Export" transform="translate(264 530)">
      <rect id="Retângulo_570" data-name="Retângulo 570" width="16" height="16" fill="none"/>
      <path id="Caminho_151" data-name="Caminho 151" d="M1.655,1.655v12.69H9.563V16H0V0H9.563V1.655ZM9.011,13.241,7.724,11.954l2.943-2.943h-6.8V7.172h6.989L7.724,4.23,9.011,2.943l4.966,4.966Z" transform="translate(2)" fill="#fff"/>
    </g>
    <g id="No" transform="translate(224 530)">
      <path id="União_3" data-name="União 3" d="M7.778,9.192,1.414,15.557,0,14.142,6.364,7.778,0,1.414,1.414,0,7.778,6.364,14.142,0l1.415,1.414L9.192,7.778l6.364,6.364-1.415,1.415Z" fill="#fff"/>
      <rect id="Retângulo_1468" data-name="Retângulo 1468" width="16" height="16" fill="none"/>
    </g>
    <g id="Up_arrow" data-name="Up arrow" transform="translate(184 530)">
      <path id="Caminho_10" data-name="Caminho 10" d="M8,0,6.545,1.455l5.506,5.506H0V9.039H12.052L6.545,14.545,8,16l8-8Z" transform="translate(0 16) rotate(-90)" fill="#fff"/>
    </g>
    <g id="Down_arrow" data-name="Down arrow" transform="translate(144 530)">
      <path id="Caminho_10-2" data-name="Caminho 10" d="M8,0,6.545,1.455l5.506,5.506H0V9.039H12.052L6.545,14.545,8,16l8-8Z" transform="translate(16) rotate(90)" fill="#fff"/>
    </g>
    <g id="Forward_arrow" data-name="Forward arrow" transform="translate(104 530)">
      <path id="Caminho_10-3" data-name="Caminho 10" d="M8,0,6.545,1.455l5.506,5.506H0V9.039H12.052L6.545,14.545,8,16l8-8Z" fill="#fff"/>
    </g>
    <g id="Backward_arrow" data-name="Backward arrow" transform="translate(64 530)">
      <path id="Caminho_10-4" data-name="Caminho 10" d="M8,0,6.545,1.455l5.506,5.506H0V9.039H12.052L6.545,14.545,8,16l8-8Z" transform="translate(16 16) rotate(180)" fill="#fff"/>
    </g>
    <path id="Add" d="M-4613,16V9h-7V7h7V0h2V7h7V9h-7v7Z" transform="translate(4644 530)" fill="#fff"/>
    <text id="_16x16_White" data-name="16x16 White" transform="translate(24 503)" fill="#2699fb" font-size="14" font-family="ArialMT, Arial"><tspan x="0" y="0">16x16</tspan></text>
    <g id="Down_arrow_small_" data-name="Down arrow small  " transform="translate(126 432)">
      <path id="Caminho_36" data-name="Caminho 36" d="M6.7,8.1,2,3.4,3.4,2,6.7,5.3,10,2l1.4,1.4Z" transform="translate(-2)" fill="#2699fb"/>
      <rect id="Retângulo_1467" data-name="Retângulo 1467" width="10" height="10" fill="none"/>
    </g>
    <g id="Up_arrow_small" data-name="Up arrow small" transform="translate(92 432)">
      <path id="Caminho_36-2" data-name="Caminho 36" d="M6.7,8.1,2,3.4,3.4,2,6.7,5.3,10,2l1.4,1.4Z" transform="translate(11.4 10.1) rotate(180)" fill="#2699fb"/>
      <rect id="Retângulo_1466" data-name="Retângulo 1466" width="10" height="10" fill="none"/>
    </g>
    <g id="Forward_arrow_small" data-name="Forward arrow small" transform="translate(58 432)">
      <path id="Caminho_36-3" data-name="Caminho 36" d="M6.7,8.1,2,3.4,3.4,2,6.7,5.3,10,2l1.4,1.4Z" transform="translate(0 11.401) rotate(-90)" fill="#2699fb"/>
      <rect id="Retângulo_1465" data-name="Retângulo 1465" width="10" height="10" fill="none"/>
    </g>
    <g id="Backward_arrow_small" data-name="Backward arrow small" transform="translate(24 432)">
      <path id="Caminho_36-4" data-name="Caminho 36" d="M6.7,8.1,2,3.4,3.4,2,6.7,5.3,10,2l1.4,1.4Z" transform="translate(10.1 -2) rotate(90)" fill="#2699fb"/>
      <rect id="Retângulo_1464" data-name="Retângulo 1464" width="10" height="10" fill="none"/>
    </g>
    <text id="_10x10" data-name="10x10" transform="translate(24 405)" fill="#2699fb" font-size="14" font-family="ArialMT, Arial"><tspan x="0" y="0">10x10</tspan></text>
    <g id="Information" transform="translate(384 327)">
      <rect id="Retângulo_280" data-name="Retângulo 280" width="16" height="16" fill="none"/>
      <path id="União_6" data-name="União 6" d="M-950-12102v-2h2v-8h-2v-2h4v10h2v2Zm1-14.5a1.5,1.5,0,0,1,1.5-1.5,1.5,1.5,0,0,1,1.5,1.5,1.5,1.5,0,0,1-1.5,1.5A1.5,1.5,0,0,1-949-12116.5Z" transform="translate(955 12118.002)" fill="#2699fb"/>
    </g>
    <g id="Merge" transform="translate(344 328)">
      <rect id="Retângulo_1459" data-name="Retângulo 1459" width="16" height="16" fill="none"/>
      <path id="União_48" data-name="União 48" d="M-937.766-17060.707h-1.411a4.815,4.815,0,0,1-4.234-2.637l-1.694-3.295a2.783,2.783,0,0,0-2.544-1.6H-950v-1.881h2.351a4.817,4.817,0,0,1,4.238,2.637l1.694,3.293a2.773,2.773,0,0,0,2.54,1.6h1.411v-1.883l3.766,2.826-3.766,2.822Zm-12.234,0v-1.883h2.351a2.766,2.766,0,0,0,2.073-.848l.375.941a5.282,5.282,0,0,0,.472.754,4.414,4.414,0,0,1-2.919,1.035Zm12.234-7.529h-1.411a2.78,2.78,0,0,0-2.073.848l-.375-.939a5.184,5.184,0,0,0-.472-.754,4.414,4.414,0,0,1,2.919-1.035h1.411V-17072l3.766,2.82-3.766,2.828Z" transform="translate(950 17074)" fill="#2699fb"/>
    </g>
    <g id="Instagram-2" data-name="Instagram" transform="translate(304 328)">
      <path id="Caminho_3-2" data-name="Caminho 3" d="M8,1.422a24.53,24.53,0,0,1,3.2.089,4.123,4.123,0,0,1,1.511.267,3.122,3.122,0,0,1,1.511,1.511A4.123,4.123,0,0,1,14.489,4.8c0,.8.089,1.067.089,3.2a24.53,24.53,0,0,1-.089,3.2,4.123,4.123,0,0,1-.267,1.511,3.122,3.122,0,0,1-1.511,1.511,4.123,4.123,0,0,1-1.511.267c-.8,0-1.067.089-3.2.089a24.53,24.53,0,0,1-3.2-.089,4.123,4.123,0,0,1-1.511-.267,3.122,3.122,0,0,1-1.511-1.511A4.123,4.123,0,0,1,1.511,11.2c0-.8-.089-1.067-.089-3.2a24.53,24.53,0,0,1,.089-3.2,4.123,4.123,0,0,1,.267-1.511A3.192,3.192,0,0,1,2.4,2.4a1.5,1.5,0,0,1,.889-.622A4.123,4.123,0,0,1,4.8,1.511,24.53,24.53,0,0,1,8,1.422M8,0A26.264,26.264,0,0,0,4.711.089,5.488,5.488,0,0,0,2.756.444a3.48,3.48,0,0,0-1.422.889A3.48,3.48,0,0,0,.444,2.756,4.05,4.05,0,0,0,.089,4.711,26.264,26.264,0,0,0,0,8a26.264,26.264,0,0,0,.089,3.289,5.488,5.488,0,0,0,.356,1.956,3.48,3.48,0,0,0,.889,1.422,3.48,3.48,0,0,0,1.422.889,5.488,5.488,0,0,0,1.956.356A26.264,26.264,0,0,0,8,16a26.264,26.264,0,0,0,3.289-.089,5.488,5.488,0,0,0,1.956-.356,3.729,3.729,0,0,0,2.311-2.311,5.488,5.488,0,0,0,.356-1.956C15.911,10.4,16,10.133,16,8a26.264,26.264,0,0,0-.089-3.289,5.488,5.488,0,0,0-.356-1.956,3.48,3.48,0,0,0-.889-1.422A3.48,3.48,0,0,0,13.244.444,5.488,5.488,0,0,0,11.289.089,26.264,26.264,0,0,0,8,0M8,3.911A4.023,4.023,0,0,0,3.911,8,4.089,4.089,0,1,0,8,3.911m0,6.756A2.619,2.619,0,0,1,5.333,8,2.619,2.619,0,0,1,8,5.333,2.619,2.619,0,0,1,10.667,8,2.619,2.619,0,0,1,8,10.667m4.267-7.911a.978.978,0,1,0,.978.978.986.986,0,0,0-.978-.978" fill="#2699fb" fill-rule="evenodd"/>
    </g>
    <g id="Facebook-2" data-name="Facebook" transform="translate(264 328)">
      <rect id="Retângulo_1458" data-name="Retângulo 1458" width="16" height="16" fill="none"/>
      <path id="Caminho_1-3" data-name="Caminho 1" d="M85.422,16V8.711h2.489l.356-2.844H85.422V4.089c0-.8.267-1.422,1.422-1.422h1.511V.089C88,.089,87.111,0,86.133,0a3.431,3.431,0,0,0-3.644,3.733V5.867H80V8.711h2.489V16Z" transform="translate(-76)" fill="#2699fb" fill-rule="evenodd"/>
    </g>
    <g id="Twitter-2" data-name="Twitter" transform="translate(224 328)">
      <rect id="Retângulo_1457" data-name="Retângulo 1457" width="16" height="16" fill="none"/>
      <path id="Caminho_2-3" data-name="Caminho 2" d="M43.067,14.978A9.25,9.25,0,0,0,52.4,5.644V5.2A7.225,7.225,0,0,0,54,3.511a7.379,7.379,0,0,1-1.867.533,3.458,3.458,0,0,0,1.422-1.778,8.153,8.153,0,0,1-2.044.8A3.175,3.175,0,0,0,49.111,2a3.34,3.34,0,0,0-3.289,3.289A1.733,1.733,0,0,0,45.911,6a9.19,9.19,0,0,1-6.756-3.467,3.4,3.4,0,0,0-.444,1.689,3.532,3.532,0,0,0,1.422,2.756,3,3,0,0,1-1.511-.444h0a3.249,3.249,0,0,0,2.667,3.2,2.74,2.74,0,0,1-.889.089,1.513,1.513,0,0,1-.622-.089,3.367,3.367,0,0,0,3.111,2.311A6.711,6.711,0,0,1,38.8,13.467a2.461,2.461,0,0,1-.8-.089,8.39,8.39,0,0,0,5.067,1.6" transform="translate(-38)" fill="#2699fb" fill-rule="evenodd"/>
    </g>
    <g id="Google_plus" data-name="Google plus" transform="translate(184 328)">
      <rect id="Retângulo_121" data-name="Retângulo 121" width="16" height="16" fill="none"/>
      <path id="Caminho_51" data-name="Caminho 51" d="M16,4.4V5.9H14.5V7.4H13V5.8H11.5V4.4H13V2.9h1.5V4.4ZM5.1,4.4H9.9c0,.3.1.5.1.8a4.7,4.7,0,0,1-4.9,5A5.1,5.1,0,0,1,5.1,0,4.938,4.938,0,0,1,8.5,1.3L7.1,2.7a2.666,2.666,0,0,0-2-.8A3.222,3.222,0,0,0,1.9,5.1,3.159,3.159,0,0,0,5.1,8.3,2.724,2.724,0,0,0,8,6.1H5.1Z" transform="translate(0 3)" fill="#2699fb" fill-rule="evenodd"/>
    </g>
    <g id="Web-2" data-name="Web" transform="translate(144 328)">
      <path id="Caminho_4-2" data-name="Caminho 4" d="M2.4,2.4A7.263,7.263,0,0,1,8,0a7.263,7.263,0,0,1,5.6,2.4A7.263,7.263,0,0,1,16,8a7.263,7.263,0,0,1-2.4,5.6A7.263,7.263,0,0,1,8,16a7.263,7.263,0,0,1-5.6-2.4A7.984,7.984,0,0,1,0,8,7.263,7.263,0,0,1,2.4,2.4Zm6.667,12a3.276,3.276,0,0,0,2-1.2A5.824,5.824,0,0,0,12,10.4a2.208,2.208,0,0,0-.667-1.6A2.347,2.347,0,0,0,9.6,8H8.267a3.893,3.893,0,0,1-1.2-.267,1.21,1.21,0,0,1-.4-.933.693.693,0,0,1,.267-.533A1.011,1.011,0,0,1,7.467,6a.91.91,0,0,1,.667.4c.267.133.4.267.533.267A.8.8,0,0,0,9.2,6.533.8.8,0,0,0,9.333,6a2.122,2.122,0,0,0-.667-1.333,5.515,5.515,0,0,0,.667-2.533.287.287,0,0,0-.267-.267A4.122,4.122,0,0,0,8,1.6,6.67,6.67,0,0,0,4.533,2.667a3.357,3.357,0,0,0-1.2,2.667A3.414,3.414,0,0,0,4.4,7.867,3.643,3.643,0,0,0,6.933,8.933h0v.533A1.712,1.712,0,0,0,7.467,10.8a1.942,1.942,0,0,0,1.2.8V14c0,.133,0,.133.133.267S8.933,14.4,9.067,14.4Z" fill="#2699fb"/>
    </g>
    <g id="Pause" transform="translate(104 328)">
      <rect id="Retângulo_1448" data-name="Retângulo 1448" width="16" height="16" fill="none"/>
      <path id="União_46" data-name="União 46" d="M-939.4-17056a1,1,0,0,1-1-1v-14a1,1,0,0,1,1-1h2.8a1,1,0,0,1,1,1v14a1,1,0,0,1-1,1Zm-9.6,0a1,1,0,0,1-1-1v-14a1,1,0,0,1,1-1h2.8a1,1,0,0,1,1,1v14a1,1,0,0,1-1,1Z" transform="translate(951 17072)" fill="#2699fb"/>
    </g>
    <g id="Skip_next" data-name="Skip next" transform="translate(64 328)">
      <rect id="Retângulo_1456" data-name="Retângulo 1456" width="16" height="16" fill="none"/>
      <path id="União_47" data-name="União 47" d="M-936.693-17060.924a1,1,0,0,1-1-1v-9.08a1,1,0,0,1,1-1H-935a1,1,0,0,1,1,1v9.08a1,1,0,0,1-1,1Zm-13.308-1.4v-8.467a1.307,1.307,0,0,1,1.842-1.105l7.361,4.293a1.169,1.169,0,0,1,0,2.088l-7.361,4.293a1.261,1.261,0,0,1-.63.172A1.234,1.234,0,0,1-950-17062.32Z" transform="translate(950.001 17074.002)" fill="#2699fb"/>
    </g>
    <g id="Skip_previous" data-name="Skip previous" transform="translate(24 328)">
      <rect id="Retângulo_1455" data-name="Retângulo 1455" width="16" height="16" fill="none"/>
      <path id="União_45" data-name="União 45" d="M-949-17060.92a1,1,0,0,1-1-1V-17071a1,1,0,0,1,1-1h1.692a1,1,0,0,1,1,1v9.078a1,1,0,0,1-1,1Zm13.162-.232-7.361-4.293a1.165,1.165,0,0,1,0-2.086l7.361-4.293a1.216,1.216,0,0,1,1.838,1.1v8.467a1.279,1.279,0,0,1-1.31,1.215A1.345,1.345,0,0,1-935.839-17061.152Z" transform="translate(950 17073.998)" fill="#2699fb"/>
    </g>
    <g id="Thumbs_Down" data-name="Thumbs Down" transform="translate(384 288)">
      <rect id="Retângulo_1453" data-name="Retângulo 1453" width="16" height="16" fill="none"/>
      <path id="Caminho_199" data-name="Caminho 199" d="M0,14.316V5.895L5.053,0h0A1.68,1.68,0,0,1,6.568,2.358L5.053,5.895h6.4a1.705,1.705,0,0,1,1.684,1.937l-1.095,6.737A1.713,1.713,0,0,1,10.358,16H1.684A1.689,1.689,0,0,1,0,14.316Z" transform="translate(14.158 16) rotate(180)" fill="#2699fb" fill-rule="evenodd"/>
    </g>
    <g id="Thumbs_Up" data-name="Thumbs Up" transform="translate(344 288)">
      <rect id="Retângulo_1452" data-name="Retângulo 1452" width="16" height="16" fill="none"/>
      <path id="Caminho_198" data-name="Caminho 198" d="M0,14.316V5.895L5.053,0h0A1.68,1.68,0,0,1,6.568,2.358L5.053,5.895h6.4a1.705,1.705,0,0,1,1.684,1.937l-1.095,6.737A1.713,1.713,0,0,1,10.358,16H1.684A1.689,1.689,0,0,1,0,14.316Z" transform="translate(1)" fill="#2699fb" fill-rule="evenodd"/>
    </g>
    <g id="Bedroom" transform="translate(304 288)">
      <rect id="Retângulo_562" data-name="Retângulo 562" width="16" height="16" fill="none"/>
      <path id="Caminho_150" data-name="Caminho 150" d="M4.267,13.833a1.9,1.9,0,0,1-.267.8c-.267.267-.4.267-.8.267H1.067a1.9,1.9,0,0,1-.8-.267C0,14.5,0,14.1,0,13.833V7.7a1.21,1.21,0,0,1,.4-.933l.8-.4A17.338,17.338,0,0,1,7.867,5.3,18.385,18.385,0,0,1,14.8,6.367c.267.133.4.267.667.4A1.007,1.007,0,0,1,16,7.7v6.133a1.9,1.9,0,0,1-.267.8c-.133.267-.4.267-.8.267H12.8a1.9,1.9,0,0,1-.8-.267c-.267-.133-.267-.4-.267-.8V12.767H4.267Zm.4-10.8a5.527,5.527,0,0,0-2.133.4c-.667.4-1.2.667-1.467,1.2v-2.4a.806.806,0,0,1,.4-.8C2.8.5,4.933.1,8,.1H9.867a8.964,8.964,0,0,1,2.4.4,7.251,7.251,0,0,1,2.267.933,1.152,1.152,0,0,1,.4.8v2.4a3.228,3.228,0,0,0-1.467-1.067,5.527,5.527,0,0,0-2.133-.4,4.259,4.259,0,0,0-1.867.4A3.749,3.749,0,0,0,8,4.233a7.23,7.23,0,0,0-1.467-.8A4.259,4.259,0,0,0,4.667,3.033Z" transform="translate(0 0.9)" fill="#2699fb"/>
    </g>
    <g id="Phone" transform="translate(264 288)">
      <rect id="Retângulo_320" data-name="Retângulo 320" width="16" height="16" fill="none"/>
      <path id="Caminho_110" data-name="Caminho 110" d="M9.286,11.429,11,9.857a.525.525,0,0,1,.429-.143l.286.143,4,1.857c.286.143.286.286.286.571a3.622,3.622,0,0,1-1.143,2.571,4.092,4.092,0,0,1-3,1.143,8.7,8.7,0,0,1-4-1,18.727,18.727,0,0,1-4-2.857A24.333,24.333,0,0,1,1.714,9,19.747,19.747,0,0,1,.286,5.857,8.791,8.791,0,0,1,0,3.143,3.754,3.754,0,0,1,1,1,4.344,4.344,0,0,1,3.714,0a.742.742,0,0,1,.571.286l2.143,4a.5.5,0,0,0,.143.286A.525.525,0,0,1,6.429,5L4.571,6.714a.638.638,0,0,0,0,.714A13.642,13.642,0,0,0,6.286,9.714a14.424,14.424,0,0,0,2.286,1.857C8.857,11.714,9.143,11.714,9.286,11.429Z" fill="#2699fb"/>
    </g>
    <g id="Feed-2" data-name="Feed" transform="translate(224 288)">
      <path id="Caminho_144" data-name="Caminho 144" d="M0,14H16v2H0ZM0,7H16v5H0ZM7,0h9V5H7ZM0,0H5V5H0Z" fill="#2699fb" fill-rule="evenodd"/>
    </g>
    <g id="Sections" transform="translate(183 288)">
      <path id="Caminho_261" data-name="Caminho 261" d="M0,0V4H16V0ZM3,3H1V1H3ZM0,10H16V6H0ZM1,7H3V9H1ZM0,16H16V12H0Zm1-3H3v2H1Z" fill="#2699fb"/>
    </g>
    <g id="Alert-2" data-name="Alert" transform="translate(144 288)">
      <rect id="Retângulo_479" data-name="Retângulo 479" width="16" height="16" fill="none"/>
      <path id="Caminho_1-4" data-name="Caminho 1" d="M15,14H10a2,2,0,0,1-4,0H1a.961.961,0,0,1-.9-.7,1.068,1.068,0,0,1,.3-1.1A4.026,4.026,0,0,0,2,9V6A6,6,0,0,1,14,6V9a4.026,4.026,0,0,0,1.6,3.2.947.947,0,0,1,.3,1.1A.961.961,0,0,1,15,14Z" transform="translate(-0.063)" fill="#2699fb" fill-rule="evenodd"/>
    </g>
    <g id="Comment-2" data-name="Comment" transform="translate(104 288)">
      <path id="Chat-2" data-name="Chat" d="M5,8A.945.945,0,0,0,6,9h4a1,1,0,0,0,1-1,.945.945,0,0,0-1-1H6A1,1,0,0,0,5,8ZM0,5A4.951,4.951,0,0,1,5,0h6a4.951,4.951,0,0,1,5,5V15a.945.945,0,0,1-1,1H5a4.951,4.951,0,0,1-5-5Z" fill="#2699fb" fill-rule="evenodd"/>
    </g>
    <g id="Warning" transform="translate(64 288)">
      <path id="Caminho_35" data-name="Caminho 35" d="M8,0a8,8,0,1,0,8,8A8.024,8.024,0,0,0,8,0ZM9.1,12.2H6.9V10.3H9.2v1.9Zm.1-7.4L8.6,9.2H7.4L6.8,4.8v-1H9.3v1Z" fill="#2699fb"/>
    </g>
    <g id="Help" transform="translate(24 288)">
      <rect id="Retângulo_481" data-name="Retângulo 481" width="16" height="16" fill="none"/>
      <path id="Caminho_146" data-name="Caminho 146" d="M8,0a8,8,0,1,0,8,8A8.024,8.024,0,0,0,8,0ZM7.92,13.28a1.12,1.12,0,1,1,1.12-1.12A1.094,1.094,0,0,1,7.92,13.28Zm2.16-6.24L9.2,8a.977.977,0,0,0-.32.72.973.973,0,0,1-.96.96.924.924,0,0,1-.96-.96A1.785,1.785,0,0,1,7.6,7.28l.72-.88a1.816,1.816,0,0,0,.56-1.12A.839.839,0,0,0,8,4.4a.941.941,0,0,0-.96.72,1.045,1.045,0,0,1-.96.56A.839.839,0,0,1,5.2,4.8a.87.87,0,0,1,.08-.4A2.666,2.666,0,0,1,8,2.72a2.592,2.592,0,0,1,2.8,2.56A2.625,2.625,0,0,1,10.08,7.04Z" fill="#2699fb"/>
    </g>
    <g id="Quote" transform="translate(384 248)">
      <path id="Caminho_19" data-name="Caminho 19" d="M5.9,8.4v6.4H0V9.7a13.251,13.251,0,0,1,1-6A8.275,8.275,0,0,1,5.1,0L6.5,2.2A5.253,5.253,0,0,0,4,4.3a7.555,7.555,0,0,0-.9,4.1Zm9.6,0v6.4H9.6V9.7c0-2.8.3-4.7,1-6A8.275,8.275,0,0,1,14.7,0L16,2.2a5.253,5.253,0,0,0-2.5,2.1,9.975,9.975,0,0,0-.9,4.1Z" transform="translate(0 1)" fill="#2699fb"/>
      <rect id="Retângulo_1451" data-name="Retângulo 1451" width="16" height="16" fill="none"/>
    </g>
    <g id="Settings-2" data-name="Settings" transform="translate(344 248)">
      <rect id="Retângulo_193-2" data-name="Retângulo 193" width="16" height="16" fill="none"/>
      <path id="Caminho_104-2" data-name="Caminho 104" d="M267.5,10a2,2,0,1,0-2-2A2.006,2.006,0,0,0,267.5,10Zm-4.1-6.4a5.64,5.64,0,0,1,2.4-1.3l.8-2.3h2l.8,2.3a6.983,6.983,0,0,1,2.4,1.3l2.4-.5,1,1.8-1.6,1.8a5.7,5.7,0,0,1,.1,1.3c0,.4-.1.9-.1,1.3l1.6,1.8-1,1.8-2.4-.5a5.64,5.64,0,0,1-2.4,1.3l-.8,2.3h-2l-.8-2.3a6.983,6.983,0,0,1-2.4-1.3l-2.4.5-1-1.8,1.6-1.8a5.7,5.7,0,0,1-.1-1.3c0-.4.1-.9.1-1.3L260,4.9l1-1.8Z" transform="translate(-260)" fill="#2699fb" fill-rule="evenodd"/>
    </g>
    <g id="Travel" transform="translate(304 248)">
      <rect id="Retângulo_1454" data-name="Retângulo 1454" width="16" height="16" fill="none"/>
      <path id="Caminho_262" data-name="Caminho 262" d="M15.6.4A2.1,2.1,0,0,0,14.5,0a3.079,3.079,0,0,0-1.3.3A7.459,7.459,0,0,0,12,1a3.515,3.515,0,0,0-.9.7A5.221,5.221,0,0,0,9.9,3L3.4,1.1c-.2,0-.3-.1-.6,0a.764.764,0,0,0-.5.2l-.7.8c-.2.1-.2.2-.2.4s.1.3.3.4L7.1,6.4c-.1.2-.7.8-1.6,1.9L2.2,7.8a1.209,1.209,0,0,0-1,.3L.1,9.3a.367.367,0,0,0-.1.3q0,.15.3.3l3.8,1.3a.988.988,0,0,1,.7.7l1.3,3.8q.15.3.3.3a.367.367,0,0,0,.3-.1l1.1-1.1a.959.959,0,0,0,.3-1l-.5-3.3c.1-.1.7-.6,1.9-1.5L13,14.4a1.38,1.38,0,0,0,.4.3c.2,0,.3,0,.4-.1l.8-.8a.764.764,0,0,0,.2-.5v-.6L13,6.1a11.973,11.973,0,0,0,1.4-1.2,4.846,4.846,0,0,0,.9-1.3,4.923,4.923,0,0,0,.6-1.7A1.569,1.569,0,0,0,15.6.4Z" fill="#2699fb"/>
    </g>
    <path id="Profile-2" data-name="Profile" d="M0,370v-2c0-2.2,3.6-4,8-4s8,1.8,8,4v2Zm4-12a4,4,0,1,1,4,4A4,4,0,0,1,4,358Z" transform="translate(264 -106)" fill="#2699fb"/>
    <g id="Favorite" transform="translate(224 248)">
      <path id="Caminho_157" data-name="Caminho 157" d="M8,0l2.5,5,5.5.8L12,9.7l.9,5.5L8,12.6,3.1,15.2,4,9.7,0,5.8,5.5,5Z" fill="#2699fb"/>
      <rect id="Retângulo_1449" data-name="Retângulo 1449" width="16" height="16" transform="translate(0 0)" fill="none"/>
    </g>
    <g id="Price" transform="translate(144 248)">
      <rect id="Retângulo_554" data-name="Retângulo 554" width="16" height="16" fill="none"/>
      <path id="Caminho_148-2" data-name="Caminho 148" d="M.267,10.133C.133,9.867,0,9.733,0,9.467A1.018,1.018,0,0,1,.267,8.8L8.933.133A.131.131,0,0,1,9.067,0h5.867A1.018,1.018,0,0,1,15.6.267a.95.95,0,0,1,.4.8V6.933c0,.133,0,.133-.133.267L7.2,15.867A5.775,5.775,0,0,1,6.533,16a1.018,1.018,0,0,1-.667-.267ZM11.467,2.4a1.646,1.646,0,0,0-.533,1.067,1.514,1.514,0,0,0,.4,1.067,1.622,1.622,0,0,0,2.133,0,1.514,1.514,0,0,0,.4-1.067A1.437,1.437,0,0,0,13.6,2.4a1.622,1.622,0,0,0-2.133,0Z" fill="#2699fb"/>
    </g>
    <g id="Lock" transform="translate(104 248)">
      <rect id="Retângulo_118" data-name="Retângulo 118" width="16" height="16" fill="none"/>
      <path id="Caminho_49" data-name="Caminho 49" d="M7,8a2,2,0,1,1-2,2A2.006,2.006,0,0,1,7,8ZM7,2A2.006,2.006,0,0,0,5,4H9A2.006,2.006,0,0,0,7,2Zm5,14H2a2.006,2.006,0,0,1-2-2V6A2.006,2.006,0,0,1,2,4H3a4,4,0,0,1,8,0h1a2.006,2.006,0,0,1,2,2v8A2.006,2.006,0,0,1,12,16Z" transform="translate(1)" fill="#2699fb" fill-rule="evenodd"/>
    </g>
    <g id="Mobile" transform="translate(64 248)">
      <rect id="Retângulo_975" data-name="Retângulo 975" width="16" height="16" fill="none"/>
      <path id="Caminho_259" data-name="Caminho 259" d="M9,0a.908.908,0,0,1,.7.3A.908.908,0,0,1,10,1V15a1.025,1.025,0,0,1-1,1H1a.908.908,0,0,1-.7-.3A.908.908,0,0,1,0,15V1A.908.908,0,0,1,.3.3.908.908,0,0,1,1,0ZM8.3,12V2.7H1.7V12Zm-4,2.7A.908.908,0,0,0,5,15a.908.908,0,0,0,.7-.3.967.967,0,0,0,0-1.4A.908.908,0,0,0,5,13a.908.908,0,0,0-.7.3.967.967,0,0,0,0,1.4Z" transform="translate(3)" fill="#2699fb"/>
    </g>
    <g id="Cancel" transform="translate(24 248)">
      <rect id="Retângulo_480" data-name="Retângulo 480" width="16" height="16" fill="none"/>
      <path id="Caminho_145" data-name="Caminho 145" d="M8,0a8,8,0,1,0,8,8A8.024,8.024,0,0,0,8,0ZM2.4,8a5.633,5.633,0,0,1,.88-3.04l7.76,7.76A5.633,5.633,0,0,1,8,13.6,5.566,5.566,0,0,1,2.4,8Zm10.32,3.04L4.96,3.28A5.633,5.633,0,0,1,8,2.4,5.566,5.566,0,0,1,13.6,8,5.633,5.633,0,0,1,12.72,11.04Z" fill="#2699fb"/>
    </g>
    <g id="Messages-2" data-name="Messages" transform="translate(64 208)">
      <rect id="Retângulo_117-2" data-name="Retângulo 117" width="16" height="16" fill="none"/>
      <path id="Caminho_50-2" data-name="Caminho 50" d="M14,2H2L8,7ZM0,2A2.006,2.006,0,0,1,2,0H14a2.006,2.006,0,0,1,2,2v8a2.006,2.006,0,0,1-2,2H2a2.006,2.006,0,0,1-2-2Z" transform="translate(0 2)" fill="#2699fb" fill-rule="evenodd"/>
    </g>
    <g id="Time" transform="translate(24 208)">
      <path id="Caminho_13" data-name="Caminho 13" d="M2.4,2.4A7.263,7.263,0,0,1,8,0a7.263,7.263,0,0,1,5.6,2.4A7.263,7.263,0,0,1,16,8a7.263,7.263,0,0,1-2.4,5.6A7.263,7.263,0,0,1,8,16a7.263,7.263,0,0,1-5.6-2.4A7.984,7.984,0,0,1,0,8,7.263,7.263,0,0,1,2.4,2.4Zm9.2,9.2.933-.933L9.2,7.333,8,2H6.667V8a1.21,1.21,0,0,0,.4.933.466.466,0,0,0,.267.133Z" fill="#2699fb"/>
    </g>
    <g id="Places-2" data-name="Places" transform="translate(384 168)">
      <rect id="Retângulo_305-2" data-name="Retângulo 305" width="16" height="16" transform="translate(0 0)" fill="none"/>
      <path id="Caminho_114-2" data-name="Caminho 114" d="M6.58,9.47A2.786,2.786,0,0,0,9.371,6.679,2.872,2.872,0,0,0,6.58,3.788,2.786,2.786,0,0,0,3.788,6.579,2.942,2.942,0,0,0,6.58,9.47ZM1.894,1.894a6.626,6.626,0,0,1,9.371,9.371L6.58,15.95,1.894,11.265A6.807,6.807,0,0,1,1.894,1.894Z" transform="translate(0.975 0.05)" fill="#2699fb" fill-rule="evenodd"/>
    </g>
    <g id="Videos-2" data-name="Videos" transform="translate(344 168)">
      <rect id="Retângulo_312-2" data-name="Retângulo 312" width="16" height="16" fill="none"/>
      <path id="Caminho_123-2" data-name="Caminho 123" d="M16,.4V9.733a.287.287,0,0,1-.267.267H15.6c-.133,0-.133,0-.267-.133L12,6.533V9.067c0,.267-.133.4-.267.667a1.43,1.43,0,0,1-.8.267H1.067A1.018,1.018,0,0,1,.4,9.733c-.267-.267-.4-.4-.4-.667v-8A1.018,1.018,0,0,1,.267.4a.95.95,0,0,1,.8-.4h10a1.018,1.018,0,0,1,.667.267,1.9,1.9,0,0,1,.267.8V3.6L15.467.133C15.467,0,15.6,0,15.733,0,15.867.133,16,.133,16,.4Z" transform="translate(0 3)" fill="#2699fb"/>
    </g>
    <g id="Camera" transform="translate(304 168)">
      <rect id="Retângulo_252" data-name="Retângulo 252" width="16" height="16" fill="none"/>
      <path id="Caminho_110-2" data-name="Caminho 110" d="M8,10A2,2,0,1,0,6,8,2.006,2.006,0,0,0,8,10ZM8,4A4,4,0,1,1,4,8,4.012,4.012,0,0,1,8,4Zm6,11H2a1.974,1.974,0,0,1-1.4-.6A1.974,1.974,0,0,1,0,13V4A2.006,2.006,0,0,1,2,2H3.6L5.1.5A1.656,1.656,0,0,1,6.3,0H9.8a1.606,1.606,0,0,1,1.1.5L12.4,2H14a2.006,2.006,0,0,1,2,2v9A2.006,2.006,0,0,1,14,15Z" transform="translate(0 1)" fill="#2699fb" fill-rule="evenodd"/>
    </g>
    <g id="Microphone" transform="translate(264 168)">
      <rect id="Retângulo_313" data-name="Retângulo 313" width="16" height="16" fill="none"/>
      <path id="Caminho_124" data-name="Caminho 124" d="M12.562,6.612a6.463,6.463,0,0,1-1.455,4.1,6.567,6.567,0,0,1-3.835,2.116V15.6c0,.132,0,.132-.132.264A.462.462,0,0,1,6.876,16H5.554c-.132,0-.132,0-.264-.132a.183.183,0,0,1,0-.264V12.826a6.567,6.567,0,0,1-3.835-2.116A6.463,6.463,0,0,1,0,6.612,1.01,1.01,0,0,1,.264,5.95a1.01,1.01,0,0,1,.661-.264,1.01,1.01,0,0,1,.661.264.727.727,0,0,1,.4.661A3.829,3.829,0,0,0,3.306,9.653a4.3,4.3,0,0,0,3.041,1.322A3.829,3.829,0,0,0,9.388,9.653a4.189,4.189,0,0,0,1.19-3.041.935.935,0,0,1,1.587-.661A.727.727,0,0,1,12.562,6.612Zm-9.256,0v-3.7A2.631,2.631,0,0,1,4.231.793,2.792,2.792,0,0,1,6.347,0,2.466,2.466,0,0,1,8.463.926a2.691,2.691,0,0,1,.793,1.983v3.7a2.631,2.631,0,0,1-.926,2.116,2.691,2.691,0,0,1-1.983.793,2.792,2.792,0,0,1-2.116-.793A2.631,2.631,0,0,1,3.306,6.612Z" transform="translate(2)" fill="#2699fb"/>
    </g>
    <g id="Options-2" data-name="Options" transform="translate(224 168)">
      <rect id="Retângulo_981" data-name="Retângulo 981" width="16" height="16" fill="none"/>
      <path id="União_62" data-name="União 62" d="M12,16a2,2,0,0,1-2-2V12a2,2,0,0,1,2-2h2a2,2,0,0,1,2,2v2a2,2,0,0,1-2,2ZM2,16a2,2,0,0,1-2-2V12a2,2,0,0,1,2-2H4a2,2,0,0,1,2,2v2a2,2,0,0,1-2,2ZM12,6a2,2,0,0,1-2-2V2a2,2,0,0,1,2-2h2a2,2,0,0,1,2,2V4a2,2,0,0,1-2,2ZM2,6A2,2,0,0,1,0,4V2A2,2,0,0,1,2,0H4A2,2,0,0,1,6,2V4A2,2,0,0,1,4,6Z" fill="#2699fb"/>
    </g>
    <g id="Speaker" transform="translate(184 168)">
      <rect id="Retângulo_976" data-name="Retângulo 976" width="16" height="16" fill="none"/>
      <path id="Caminho_260" data-name="Caminho 260" d="M8.347.48v15.2a.344.344,0,0,1-.32.32.5.5,0,0,1-.32-.16l-4.32-4.16H.347c-.16,0-.16,0-.32-.16s0-.16,0-.32V4.8c0-.16,0-.16.16-.32a.559.559,0,0,1,.32-.16h3.04L7.867,0h.32C8.347.16,8.347.16,8.347.48Z" transform="translate(3.044)" fill="#2699fb"/>
    </g>
    <g id="Wifi" transform="translate(144 168)">
      <rect id="Retângulo_956" data-name="Retângulo 956" width="16" height="16" fill="none"/>
      <path id="Caminho_256" data-name="Caminho 256" d="M15.9,16.6,14.5,18a.1.1,0,0,0-.1.1h-.1c-.1,0-.2,0-.2-.1a8.161,8.161,0,0,0-6-2.5,8.005,8.005,0,0,0-6,2.5c0,.1-.1.1-.2.1H1.8a.1.1,0,0,1-.1-.1L.3,16.6a.446.446,0,0,1,0-.5,11.048,11.048,0,0,1,15.7,0A.749.749,0,0,1,15.9,16.6Zm-3.1,3.1-1.4,1.4a.1.1,0,0,0-.1.1h-.1c-.1,0-.2,0-.2-.1a4,4,0,0,0-2.9-1.2,4,4,0,0,0-2.9,1.2.31.31,0,0,1-.2.1H4.9a.1.1,0,0,1-.1-.1L3.4,19.7c-.2-.2-.2-.3,0-.5a6.568,6.568,0,0,1,4.8-2,6.568,6.568,0,0,1,4.8,2A.551.551,0,0,1,12.8,19.7Zm-3,3L8.3,24.2c-.2.2-.3.2-.5,0L6.3,22.7a.454.454,0,0,1,0-.5,2.41,2.41,0,0,1,1.8-.7,2.41,2.41,0,0,1,1.8.7A.749.749,0,0,1,9.8,22.7Z" transform="translate(-0.225 -10.826)" fill="#2699fb"/>
    </g>
    <g id="Bluetooth" transform="translate(104 168)">
      <rect id="Retângulo_955" data-name="Retângulo 955" width="16" height="16" fill="none"/>
      <path id="Caminho_258" data-name="Caminho 258" d="M11.143,10.952,7.048,7.9l4.1-3.048L4.476,0V6.1L1.143,3.619,0,5.143,3.81,8,0,10.857l1.143,1.524L4.476,9.9V16ZM6.381,12.1V9.81L7.9,10.952Zm0-8.286L7.9,4.952,6.381,6.1Z" transform="translate(2)" fill="#2699fb"/>
    </g>
    <g id="Attachment" transform="translate(64 168)">
      <rect id="Retângulo_314" data-name="Retângulo 314" width="16" height="16" fill="none"/>
      <path id="Caminho_125" data-name="Caminho 125" d="M5.6,16a5.045,5.045,0,0,1-3.733-1.6A5.151,5.151,0,0,1,0,10.4a5.35,5.35,0,0,1,.4-2,4.611,4.611,0,0,1,.933-1.6L4,4.133A3.213,3.213,0,0,1,6.4,3.2,3.643,3.643,0,0,1,8.933,4.267,3.424,3.424,0,0,1,10,6.933a3.213,3.213,0,0,1-.933,2.4L7.6,10.667a1.018,1.018,0,0,1-.667.267,1.43,1.43,0,0,1-.8-.267,1.9,1.9,0,0,1-.267-.8,1.9,1.9,0,0,1,.267-.8L7.6,7.6A.806.806,0,0,0,8,6.8a1.629,1.629,0,0,0-.533-1.2,1.554,1.554,0,0,0-.933-.267A1.927,1.927,0,0,0,5.6,5.6L2.8,8.267A3.689,3.689,0,0,0,2.133,10.4,3.9,3.9,0,0,0,3.2,12.933a2.767,2.767,0,0,0,1.333.8,2.3,2.3,0,0,0,1.333.133c.4-.133.8-.133,1.067-.267a2.789,2.789,0,0,0,.8-.533l5.333-5.333A2.924,2.924,0,0,0,14,5.467a3.493,3.493,0,0,0-1.2-2.533,5.937,5.937,0,0,0-1.6-.8H10a2.823,2.823,0,0,0-.933.4,1.691,1.691,0,0,1-.8.133A.886.886,0,0,1,7.6,2.133c-.133-.133-.133-.4-.133-.8A2.341,2.341,0,0,1,8,.667,5.251,5.251,0,0,1,10.667,0a4.936,4.936,0,0,1,3.467,1.333,5.626,5.626,0,0,1,1.867,4A5.218,5.218,0,0,1,14.533,9.2L9.2,14.533A4.924,4.924,0,0,1,5.6,16Z" fill="#2699fb"/>
    </g>
    <g id="Refresh" transform="translate(24 168)">
      <path id="Caminho_189" data-name="Caminho 189" d="M5,10c.5,0,.7.3.3.7L3.8,12.2A5.988,5.988,0,0,0,8,14a6.048,6.048,0,0,0,6-5.2A1.011,1.011,0,0,1,16,9v.2A8,8,0,0,1,8,16a8.362,8.362,0,0,1-5.7-2.3L.7,15.3c-.4.4-.7.2-.7-.3V10.5A.472.472,0,0,1,.5,10Zm6-4c-.5,0-.7-.3-.3-.7l1.5-1.5A5.988,5.988,0,0,0,8,2,6.048,6.048,0,0,0,2,7.2.95.95,0,0,1,1,8,.945.945,0,0,1,0,7V6.8A8,8,0,0,1,8,0a8.362,8.362,0,0,1,5.7,2.3L15.3.7c.4-.4.7-.2.7.3V5.5a.472.472,0,0,1-.5.5Z" fill="#2699fb" fill-rule="evenodd"/>
    </g>
    <g id="Search-2" data-name="Search" transform="translate(384 128)">
      <rect id="Retângulo_176" data-name="Retângulo 176" width="16" height="16" fill="none"/>
      <path id="Caminho_99" data-name="Caminho 99" d="M15.9,14.5l-3.3-3.3A6.847,6.847,0,0,0,14,7,6.957,6.957,0,0,0,7,0,6.957,6.957,0,0,0,0,7a6.957,6.957,0,0,0,7,7,6.847,6.847,0,0,0,4.2-1.4l3.3,3.3ZM2,7A4.951,4.951,0,0,1,7,2a4.951,4.951,0,0,1,5,5,4.951,4.951,0,0,1-5,5A4.951,4.951,0,0,1,2,7Z" fill="#2699fb"/>
    </g>
    <g id="Export-2" data-name="Export" transform="translate(344 128)">
      <rect id="Retângulo_570-2" data-name="Retângulo 570" width="16" height="16" fill="none"/>
      <path id="Caminho_151-2" data-name="Caminho 151" d="M1.655,1.655v12.69H9.563V16H0V0H9.563V1.655ZM9.011,13.241,7.724,11.954l2.943-2.943h-6.8V7.172h6.989L7.724,4.23,9.011,2.943l4.966,4.966Z" transform="translate(2)" fill="#2699fb"/>
    </g>
    <g id="No-2" data-name="No" transform="translate(264 128)">
      <rect id="Retângulo_1445" data-name="Retângulo 1445" width="16" height="16" fill="none"/>
      <path id="União_3-2" data-name="União 3" d="M7.778,9.192,1.414,15.557,0,14.142,6.364,7.778,0,1.414,1.414,0,7.778,6.364,14.142,0l1.415,1.414L9.192,7.778l6.364,6.364-1.415,1.415Z" fill="#2699fb"/>
    </g>
    <g id="Down_arrow-2" data-name="Down arrow" transform="translate(184 128)">
      <path id="Caminho_10-5" data-name="Caminho 10" d="M8,0,6.545,1.455l5.506,5.506H0V9.039H12.052L6.545,14.545,8,16l8-8Z" transform="translate(16) rotate(90)" fill="#2699fb"/>
    </g>
    <g id="Forward_arrow-2" data-name="Forward arrow" transform="translate(144 128)">
      <path id="Caminho_10-6" data-name="Caminho 10" d="M8,0,6.545,1.455l5.506,5.506H0V9.039H12.052L6.545,14.545,8,16l8-8Z" fill="#2699fb"/>
    </g>
    <g id="Backward_arrow-2" data-name="Backward arrow" transform="translate(104 128)">
      <path id="Caminho_10-7" data-name="Caminho 10" d="M8,0,6.545,1.455l5.506,5.506H0V9.039H12.052L6.545,14.545,8,16l8-8Z" transform="translate(16 16) rotate(180)" fill="#2699fb"/>
    </g>
    <g id="Menu" transform="translate(64 128)">
      <path id="Menu-2" data-name="Menu" d="M-6160,14V12h10v2Zm0-6V6h16V8Zm0-6V0h16V2Z" transform="translate(6160 1)" fill="#2699fb"/>
      <rect id="Retângulo_1446" data-name="Retângulo 1446" width="16" height="16" fill="none"/>
    </g>
    <path id="Add-2" data-name="Add" d="M-4613,16V9h-7V7h7V0h2V7h7V9h-7v7Z" transform="translate(4644 128)" fill="#2699fb"/>
    <text id="_16x16_Blue" data-name="16x16 Blue" transform="translate(24 101)" fill="#2699fb" font-size="14" font-family="ArialMT, Arial"><tspan x="0" y="0">16x16</tspan></text>
    <g id="Compose" transform="translate(104 208)">
      <rect id="Retângulo_324" data-name="Retângulo 324" width="16" height="16" fill="none"/>
      <path id="Caminho_110-3" data-name="Caminho 110" d="M8.154,3.077,2.462,8.923,0,16l7.077-2.308L12.769,8Zm7.231-.462-2-2a1.865,1.865,0,0,0-2.769,0L8.923,2.308l4.615,4.769,1.846-1.846A1.95,1.95,0,0,0,16,3.846,1.9,1.9,0,0,0,15.385,2.615Z" fill="#2699fb"/>
    </g>
    <g id="Heart-3" data-name="Heart" transform="translate(184 208)">
      <path id="Heart-4" data-name="Heart" d="M14.746,1.3a4.3,4.3,0,0,0-6.119,0l-.6.6-.6-.6A4.327,4.327,0,0,0,1.3,7.423l6.721,6.721,6.721-6.721a4.3,4.3,0,0,0,0-6.119" transform="translate(-0.025 0.975)" fill="#2699fb" fill-rule="evenodd"/>
      <rect id="Retângulo_1450" data-name="Retângulo 1450" width="16" height="16" fill="none"/>
    </g>
    <g id="Explore-2" data-name="Explore" transform="translate(224 208)">
      <path id="Caminho_277" data-name="Caminho 277" d="M138,16a8,8,0,1,1,8-8A8.024,8.024,0,0,1,138,16Zm4-12-3.9,1.8a5.12,5.12,0,0,0-2.3,2.3L134,12l3.9-1.8a5.12,5.12,0,0,0,2.3-2.3Z" transform="translate(-130)" fill="#2699fb" fill-rule="evenodd"/>
    </g>
    <path id="Delete" d="M8,16a8,8,0,1,1,8-8A8.009,8.009,0,0,1,8,16ZM4,7V9h8V7Z" transform="translate(264 208)" fill="#2699fb"/>
    <g id="Bookmark" transform="translate(304 208)">
      <rect id="Retângulo_239" data-name="Retângulo 239" width="16" height="16" fill="none"/>
      <path id="Caminho_110-4" data-name="Caminho 110" d="M0,0H12V16L6,10,0,16Z" transform="translate(2)" fill="#2699fb"/>
    </g>
    <path id="Chart" d="M-463-17056v-12h4v12Zm-6,0v-16h4v16Zm-6,0v-8h4v8Z" transform="translate(819.002 17280)" fill="#2699fb"/>
    <text id="What_is_a_ClipBoard_Copy_paste_" data-name="What is a ClipBoard Copy &amp; paste?" transform="translate(466 388)" fill="#4c5054" font-size="18" font-family="BaiJamjuree-SemiBold, Bai Jamjuree" font-weight="600"><tspan x="-148.545" y="0">What is a ClipBoard Copy &amp; paste?</tspan></text>
  </g>
</svg>
