<svg xmlns="http://www.w3.org/2000/svg" xmlns:xlink="http://www.w3.org/1999/xlink" width="375" height="2769" viewBox="0 0 375 2769">
  <defs>
    <filter id="Retângulo_4" x="64" y="414" width="248" height="79" filterUnits="userSpaceOnUse">
      <feOffset dy="3" input="SourceAlpha"/>
      <feGaussianBlur stdDeviation="3" result="blur"/>
      <feFlood flood-opacity="0.161"/>
      <feComposite operator="in" in2="blur"/>
      <feComposite in="SourceGraphic"/>
    </filter>
    <filter id="Retângulo_4-2" x="64" y="414" width="248" height="79" filterUnits="userSpaceOnUse">
      <feOffset dy="3" input="SourceAlpha"/>
      <feGaussianBlur stdDeviation="3" result="blur-2"/>
      <feFlood flood-opacity="0.161" result="color"/>
      <feComposite operator="out" in="SourceGraphic" in2="blur-2"/>
      <feComposite operator="in" in="color"/>
      <feComposite operator="in" in2="SourceGraphic"/>
    </filter>
    <filter id="Retângulo_4-3" x="64" y="2470" width="248" height="79" filterUnits="userSpaceOnUse">
      <feOffset dy="3" input="SourceAlpha"/>
      <feGaussianBlur stdDeviation="3" result="blur-3"/>
      <feFlood flood-opacity="0.161"/>
      <feComposite operator="in" in2="blur-3"/>
      <feComposite in="SourceGraphic"/>
    </filter>
    <filter id="Retângulo_4-4" x="64" y="2470" width="248" height="79" filterUnits="userSpaceOnUse">
      <feOffset dy="3" input="SourceAlpha"/>
      <feGaussianBlur stdDeviation="3" result="blur-4"/>
      <feFlood flood-opacity="0.161" result="color-2"/>
      <feComposite operator="out" in="SourceGraphic" in2="blur-4"/>
      <feComposite operator="in" in="color-2"/>
      <feComposite operator="in" in2="SourceGraphic"/>
    </filter>
    <filter id="Retângulo_4-5" x="64" y="1408" width="248" height="79" filterUnits="userSpaceOnUse">
      <feOffset dy="3" input="SourceAlpha"/>
      <feGaussianBlur stdDeviation="3" result="blur-5"/>
      <feFlood flood-opacity="0.161"/>
      <feComposite operator="in" in2="blur-5"/>
      <feComposite in="SourceGraphic"/>
    </filter>
    <filter id="Retângulo_4-6" x="64" y="1408" width="248" height="79" filterUnits="userSpaceOnUse">
      <feOffset dy="3" input="SourceAlpha"/>
      <feGaussianBlur stdDeviation="3" result="blur-6"/>
      <feFlood flood-opacity="0.161" result="color-3"/>
      <feComposite operator="out" in="SourceGraphic" in2="blur-6"/>
      <feComposite operator="in" in="color-3"/>
      <feComposite operator="in" in2="SourceGraphic"/>
    </filter>
    <clipPath id="clip-WIREFRAME_iPhone_X_XS_11_Pro_2">
      <rect width="375" height="2769"/>
    </clipPath>
  </defs>
  <g id="WIREFRAME_iPhone_X_XS_11_Pro_2" data-name="WIREFRAME iPhone X, XS, 11 Pro – 2" clip-path="url(#clip-WIREFRAME_iPhone_X_XS_11_Pro_2)">
    <rect width="375" height="2769" fill="#fff"/>
    <g id="Retângulo_7" data-name="Retângulo 7" transform="translate(0 1902)" fill="#4c5054" stroke="#707070" stroke-width="1">
      <rect width="375" height="715" stroke="none"/>
      <rect x="0.5" y="0.5" width="374" height="714" fill="none"/>
    </g>
    <g id="Retângulo_3" data-name="Retângulo 3" transform="translate(0 97)" fill="#585f5e" stroke="#707070" stroke-width="1">
      <rect width="375" height="715" stroke="none"/>
      <rect x="0.5" y="0.5" width="374" height="714" fill="none"/>
    </g>
    <g id="icon_-_menu_mobile" data-name="icon - menu mobile" transform="translate(311.337 44)">
      <path id="reorder-three-outline" d="M96,184h26.663M96,176h26.663M96,192h26.663" transform="translate(-96 -176)" fill="none" stroke="#000" stroke-linecap="round" stroke-linejoin="round" stroke-width="4"/>
    </g>
    <g id="Button_-_write" data-name="Button - write" transform="translate(73 420)">
      <g data-type="innerShadowGroup">
        <g transform="matrix(1, 0, 0, 1, -73, -420)" filter="url(#Retângulo_4)">
          <rect id="Retângulo_4-7" data-name="Retângulo 4" width="230" height="61" rx="25" transform="translate(73 420)" fill="#fff"/>
        </g>
        <g transform="matrix(1, 0, 0, 1, -73, -420)" filter="url(#Retângulo_4-2)">
          <rect id="Retângulo_4-8" data-name="Retângulo 4" width="230" height="61" rx="25" transform="translate(73 420)" fill="#fff"/>
        </g>
      </g>
      <text id="Buttom" transform="translate(83 37)" fill="#4c5054" font-size="18" font-family="BaiJamjuree-SemiBold, Bai Jamjuree" font-weight="600"><tspan x="0" y="0">Buttom</tspan></text>
    </g>
    <g id="Button_-_write-2" data-name="Button - write" transform="translate(73 2476)">
      <g data-type="innerShadowGroup">
        <g transform="matrix(1, 0, 0, 1, -73, -2476)" filter="url(#Retângulo_4-3)">
          <rect id="Retângulo_4-9" data-name="Retângulo 4" width="230" height="61" rx="25" transform="translate(73 2476)" fill="#fff"/>
        </g>
        <g transform="matrix(1, 0, 0, 1, -73, -2476)" filter="url(#Retângulo_4-4)">
          <rect id="Retângulo_4-10" data-name="Retângulo 4" width="230" height="61" rx="25" transform="translate(73 2476)" fill="#fff"/>
        </g>
      </g>
      <text id="Buttom-2" data-name="Buttom" transform="translate(83 37)" fill="#4c5054" font-size="18" font-family="BaiJamjuree-SemiBold, Bai Jamjuree" font-weight="600"><tspan x="0" y="0">Buttom</tspan></text>
    </g>
    <text id="Copy_and_paste" data-name="Copy and paste" transform="translate(187.5 993)" fill="#4c5054" font-size="14" font-family="BaiJamjuree-Regular, Bai Jamjuree"><tspan x="-56.763" y="0">COPY AND PASTE</tspan></text>
    <text id="Available_for_images_too" data-name="Available for images too" transform="translate(187.5 1171)" fill="#4c5054" font-size="14" font-family="BaiJamjuree-Regular, Bai Jamjuree"><tspan x="-92.582" y="0">AVAILABLE FOR IMAGES TOO</tspan></text>
    <text id="Save_find_your_documents" data-name="Save &amp; find your documents" transform="translate(187.5 1011)" fill="#4c5054" font-size="14" font-family="BaiJamjuree-Regular, Bai Jamjuree"><tspan x="-104.335" y="0">SAVE &amp; FIND YOUR DOCUMENTS</tspan></text>
    <text id="Lorem_ipsum." data-name="Lorem ipsum." transform="translate(188 177)" fill="#fff" font-size="43" font-family="BaiJamjuree-SemiBold, Bai Jamjuree" font-weight="600" letter-spacing="0.01em"><tspan x="-137.299" y="0">Lorem Ipsum.</tspan></text>
    <text id="Lorem_ipsum.-2" data-name="Lorem ipsum." transform="translate(188 375)" fill="#fff" font-size="18" font-family="BaiJamjuree-Regular, Bai Jamjuree"><tspan x="-54.747" y="0">Lorem Ipsum.</tspan></text>
    <text id="Lorem_ipsum.-3" data-name="Lorem ipsum." transform="translate(185 532)" fill="#fff" font-size="18" font-family="BaiJamjuree-Regular, Bai Jamjuree"><tspan x="-54.747" y="0">Lorem Ipsum.</tspan></text>
    <text id="Lorem_ipsum.-4" data-name="Lorem ipsum." transform="translate(188 767)" fill="#fff" font-size="12" font-family="BaiJamjuree-Regular, Bai Jamjuree"><tspan x="-40.482" y="0">LOREM IPSUM.</tspan></text>
    <g id="Button_-_write-3" data-name="Button - write" transform="translate(73 1414)">
      <g id="Grupo_4" data-name="Grupo 4">
        <g data-type="innerShadowGroup">
          <g transform="matrix(1, 0, 0, 1, -73, -1414)" filter="url(#Retângulo_4-5)">
            <rect id="Retângulo_4-11" data-name="Retângulo 4" width="230" height="61" rx="25" transform="translate(73 1414)" fill="#4c5054"/>
          </g>
          <g transform="matrix(1, 0, 0, 1, -73, -1414)" filter="url(#Retângulo_4-6)">
            <rect id="Retângulo_4-12" data-name="Retângulo 4" width="230" height="61" rx="25" transform="translate(73 1414)" fill="#fff"/>
          </g>
        </g>
      </g>
      <text id="Buttom-3" data-name="Buttom" transform="translate(83 37)" fill="#fff" font-size="18" font-family="BaiJamjuree-SemiBold, Bai Jamjuree" font-weight="600"><tspan x="0" y="0">Buttom</tspan></text>
    </g>
    <g id="elements_footer_mobile" data-name="elements footer mobile" transform="translate(66 2638)">
      <text id="_copyright_2022_ClipBoard_LLC_Terms_Conditions_Privacy_policy" data-name="@copyright 2022 ClipBoard LLC
Terms &amp; Conditions / Privacy policy" transform="translate(114 92)" fill="#4c5054" font-size="14" font-family="BaiJamjuree-Regular, Bai Jamjuree"><tspan x="-102.172" y="0">@copyright 2022 ClipBoard LLC</tspan><tspan x="-114.086" y="18">Terms &amp; Conditions / Privacy policy</tspan></text>
      <text id="Footer" transform="translate(62 14)" fill="#4c5054" font-size="14" font-family="BaiJamjuree-Regular, Bai Jamjuree"><tspan x="0" y="0">Footer</tspan></text>
      <g id="icon-twitter" transform="translate(17 38.248)">
        <path id="icon-twitter-2" data-name="icon-twitter" d="M24,2.557a9.83,9.83,0,0,1-2.828.775A4.932,4.932,0,0,0,23.337.608,9.864,9.864,0,0,1,20.21,1.8a4.927,4.927,0,0,0-8.391,4.49A13.978,13.978,0,0,1,1.671,1.149,4.93,4.93,0,0,0,3.194,7.723,4.9,4.9,0,0,1,.965,7.107,4.927,4.927,0,0,0,4.914,12a4.935,4.935,0,0,1-2.224.084A4.928,4.928,0,0,0,7.29,15.5,9.9,9.9,0,0,1,0,17.54a13.94,13.94,0,0,0,7.548,2.212A13.925,13.925,0,0,0,21.543,5.106,10.025,10.025,0,0,0,24,2.557Z" transform="translate(0 -0.248)" fill="#4c545c"/>
      </g>
      <g id="icon-facebook" transform="translate(187 36)">
        <path id="icon-facebook-2" data-name="icon-facebook" d="M22.675,0H1.325A1.325,1.325,0,0,0,0,1.325V22.676A1.325,1.325,0,0,0,1.325,24H12.82V14.706H9.692V11.084H12.82V8.413c0-3.1,1.893-4.788,4.659-4.788a25.657,25.657,0,0,1,2.8.143v3.24H18.356c-1.5,0-1.8.715-1.8,1.763v2.313h3.587l-.467,3.622h-3.12V24h6.116A1.324,1.324,0,0,0,24,22.675V1.325A1.325,1.325,0,0,0,22.675,0Z" fill="#4c545c"/>
      </g>
      <g id="icon-instagram" transform="translate(103 36)">
        <path id="icon-instagram-2" data-name="icon-instagram" d="M12,2.163c3.2,0,3.584.012,4.85.07,3.252.148,4.771,1.691,4.919,4.919.058,1.265.069,1.645.069,4.849s-.012,3.584-.069,4.849c-.149,3.225-1.664,4.771-4.919,4.919-1.266.058-1.644.07-4.85.07s-3.584-.012-4.849-.07c-3.26-.149-4.771-1.7-4.919-4.92-.058-1.265-.07-1.644-.07-4.849s.013-3.583.07-4.849C2.381,3.924,3.9,2.38,7.151,2.232,8.417,2.175,8.8,2.163,12,2.163ZM12,0C8.741,0,8.333.014,7.053.072,2.695.272.273,2.69.073,7.052.014,8.333,0,8.741,0,12s.014,3.668.072,4.948c.2,4.358,2.618,6.78,6.98,6.98C8.333,23.986,8.741,24,12,24s3.668-.014,4.948-.072c4.354-.2,6.782-2.618,6.979-6.98C23.986,15.668,24,15.259,24,12s-.014-3.667-.072-4.947c-.2-4.354-2.617-6.78-6.979-6.98C15.668.014,15.259,0,12,0Zm0,5.838A6.162,6.162,0,1,0,18.162,12,6.162,6.162,0,0,0,12,5.838ZM12,16a4,4,0,1,1,4-4A4,4,0,0,1,12,16ZM18.406,4.155a1.441,1.441,0,1,0,1.44,1.44,1.44,1.44,0,0,0-1.44-1.44Z" fill="#4c545c"/>
      </g>
    </g>
    <g id="Elipse_4" data-name="Elipse 4" transform="translate(40 16)" fill="#fff" stroke="#707070" stroke-width="1">
      <ellipse cx="31.5" cy="30" rx="31.5" ry="30" stroke="none"/>
      <ellipse cx="31.5" cy="30" rx="31" ry="29.5" fill="none"/>
    </g>
    <text id="Logo" transform="translate(71 53)" fill="#4c5054" font-size="18" font-family="BaiJamjuree-SemiBold, Bai Jamjuree" font-weight="600"><tspan x="-24.174" y="0">LOGO</tspan></text>
    <text id="Lorem_ipsum_dolor_sit_amet_consetetur." data-name="Lorem ipsum dolor sit amet, consetetur." transform="translate(69 1198)" fill="#4c5054" font-size="26" font-family="BaiJamjuree-SemiBold, Bai Jamjuree" font-weight="600"><tspan x="4.672" y="26">Lorem ipsum dolor </tspan></text>
    <text id="Lorem_ipsum_dolor_sit_amet_consetetur.-2" data-name="Lorem ipsum dolor sit amet, consetetur." transform="translate(69 1305)" fill="#4c5054" font-size="18" font-family="BaiJamjuree-Regular, Bai Jamjuree"><tspan x="4.308" y="18">Lorem ipsum dolor sit amet, </tspan><tspan x="72.231" y="41">consetetur.</tspan></text>
    <text id="Lorem_ipsum_dolor_sit_amet_consetetur.-3" data-name="Lorem ipsum dolor sit amet, consetetur." transform="translate(69 1538)" fill="#4c5054" font-size="26" font-family="BaiJamjuree-SemiBold, Bai Jamjuree" font-weight="600"><tspan x="4.672" y="26">Lorem ipsum dolor </tspan></text>
    <g id="Retângulo_14" data-name="Retângulo 14" transform="translate(99 2071)" fill="#fff" stroke="#707070" stroke-width="1">
      <rect width="177" height="69" stroke="none"/>
      <rect x="0.5" y="0.5" width="176" height="68" fill="none"/>
    </g>
    <g id="Retângulo_15" data-name="Retângulo 15" transform="translate(99 2192)" fill="#fff" stroke="#707070" stroke-width="1">
      <rect width="177" height="69" stroke="none"/>
      <rect x="0.5" y="0.5" width="176" height="68" fill="none"/>
    </g>
    <g id="Retângulo_16" data-name="Retângulo 16" transform="translate(99 2313)" fill="#fff" stroke="#707070" stroke-width="1">
      <rect width="177" height="69" stroke="none"/>
      <rect x="0.5" y="0.5" width="176" height="68" fill="none"/>
    </g>
    <g id="Photos" transform="translate(107.985 572.222)">
      <rect id="Retângulo_549" data-name="Retângulo 549" transform="translate(-0.43 55.594)" fill="none"/>
      <path id="Caminho_148" data-name="Caminho 148" d="M0,0S0,.152,0,.3c0,.3,0,.456,0,.911V12.6c0,.3,0,.607,0,.759s0,.3,0,.3H0s0-.152,0-.3c0-.3,0-.456,0-.911V1.215c0-.3,0-.607,0-.759Q0,0,0,0ZM0,2.733q0-.456,0-.456s0,.152,0,.456,0,.759,0,1.215,0,.911,0,1.215,0,.456,0,.456,0-.152,0-.456S0,4.4,0,3.948,0,3.037,0,2.733Zm0,8.656v0Z" transform="translate(0.549 130.112)" fill="#fff"/>
      <rect id="Retângulo_549-2" data-name="Retângulo 549" width="37" height="37" transform="translate(1.57 -2.222)" fill="none"/>
      <path id="Caminho_148-2" data-name="Caminho 148" d="M142.438,0A8.879,8.879,0,0,1,148.8,3.119c2.544,3.119,3.815,4.679,3.815,9.358V129.454a13.442,13.442,0,0,1-2.544,7.8c-2.544,1.56-3.815,3.119-7.631,3.119H10.174c-3.815,0-5.087-1.56-7.631-3.119C1.272,134.133,0,132.573,0,127.894V12.477a13.442,13.442,0,0,1,2.544-7.8C5.087,1.56,6.359,0,10.174,0ZM43.24,28.074a13.4,13.4,0,0,0-20.348,0c-2.544,3.119-3.815,7.8-3.815,12.477s1.272,9.358,3.815,12.477a13.4,13.4,0,0,0,20.348,0c2.544-3.119,3.815-7.8,3.815-12.477S45.784,31.194,43.24,28.074Zm90.3,88.9L95.382,46.791,61.045,101.38,38.153,81.1,19.076,116.976Z" transform="translate(1.848 3.407)" fill="#fff"/>
    </g>
    <g id="Photos-2" data-name="Photos" transform="translate(134.507 1054.222)">
      <rect id="Retângulo_549-3" data-name="Retângulo 549" transform="translate(-0.43 35.794)" fill="none"/>
      <path id="Caminho_148-3" data-name="Caminho 148" d="M0,0S0,.1,0,.2C0,.4,0,.5,0,.8V8.287c0,.2,0,.4,0,.5s0,.2,0,.2H0s0-.1,0-.2c0-.2,0-.3,0-.6V.8C0,.6,0,.4,0,.3Q0,0,0,0ZM0,1.8q0-.3,0-.3s0,.1,0,.3,0,.5,0,.8,0,.6,0,.8,0,.3,0,.3,0-.1,0-.3,0-.5,0-.8S0,2,0,1.8ZM0,7.489v0Z" transform="translate(0.214 84.792)" fill="#4c5054"/>
      <rect id="Retângulo_549-4" data-name="Retângulo 549" width="24.329" height="24.329" transform="translate(0.885 -2.222)" fill="none"/>
      <path id="Caminho_148-4" data-name="Caminho 148" d="M93.658,0a5.838,5.838,0,0,1,4.181,2.051c1.672,2.051,2.509,3.077,2.509,6.153V85.12a8.839,8.839,0,0,1-1.672,5.128C97,91.274,96.166,92.3,93.658,92.3H6.69c-2.509,0-3.345-1.026-5.017-2.051C.836,88.2,0,87.171,0,84.095V8.2A8.839,8.839,0,0,1,1.672,3.077C3.345,1.026,4.181,0,6.69,0ZM28.432,18.46a8.811,8.811,0,0,0-13.38,0,13.252,13.252,0,0,0-2.509,8.2,13.252,13.252,0,0,0,2.509,8.2,8.811,8.811,0,0,0,13.38,0,13.252,13.252,0,0,0,2.509-8.2A13.252,13.252,0,0,0,28.432,18.46ZM87.8,76.916,62.717,30.766,40.139,66.661,25.087,53.328,12.543,76.916Z" transform="translate(1.068 1.479)" fill="#4c5054"/>
    </g>
    <g id="Photos-3" data-name="Photos" transform="translate(130.93 1756.222)">
      <rect id="Retângulo_549-5" data-name="Retângulo 549" transform="translate(-0.43 35.794)" fill="none"/>
      <path id="Caminho_148-5" data-name="Caminho 148" d="M0,0S0,.1,0,.2C0,.4,0,.5,0,.8V8.287c0,.2,0,.4,0,.5s0,.2,0,.2H0s0-.1,0-.2c0-.2,0-.3,0-.6V.8C0,.6,0,.4,0,.3Q0,0,0,0ZM0,1.8q0-.3,0-.3s0,.1,0,.3,0,.5,0,.8,0,.6,0,.8,0,.3,0,.3,0-.1,0-.3,0-.5,0-.8S0,2,0,1.8ZM0,7.489v0Z" transform="translate(0.214 84.792)" fill="#4c5054"/>
      <rect id="Retângulo_549-6" data-name="Retângulo 549" width="24.329" height="24.329" transform="translate(0.885 -2.222)" fill="none"/>
      <path id="Caminho_148-6" data-name="Caminho 148" d="M93.658,0a5.838,5.838,0,0,1,4.181,2.051c1.672,2.051,2.509,3.077,2.509,6.153V85.12a8.839,8.839,0,0,1-1.672,5.128C97,91.274,96.166,92.3,93.658,92.3H6.69c-2.509,0-3.345-1.026-5.017-2.051C.836,88.2,0,87.171,0,84.095V8.2A8.839,8.839,0,0,1,1.672,3.077C3.345,1.026,4.181,0,6.69,0ZM28.432,18.46a8.811,8.811,0,0,0-13.38,0,13.252,13.252,0,0,0-2.509,8.2,13.252,13.252,0,0,0,2.509,8.2,8.811,8.811,0,0,0,13.38,0,13.252,13.252,0,0,0,2.509-8.2A13.252,13.252,0,0,0,28.432,18.46ZM87.8,76.916,62.717,30.766,40.139,66.661,25.087,53.328,12.543,76.916Z" transform="translate(1.068 1.479)" fill="#4c5054"/>
    </g>
    <g id="Folder" transform="translate(131.613 873.112)">
      <path id="Caminho_178" data-name="Caminho 178" d="M0,76.326V6.873A7.142,7.142,0,0,1,2.17,1.809,6.877,6.877,0,0,1,6.873,0H47.025a4.107,4.107,0,0,1,2.894,1.085,4.863,4.863,0,0,1,2.17,2.532l3.617,10.129h48.834a7.142,7.142,0,0,1,5.064,2.17,6.568,6.568,0,0,1,2.17,5.064V76.687a7.142,7.142,0,0,1-2.17,5.064,6.568,6.568,0,0,1-5.064,2.17H6.873a7.142,7.142,0,0,1-5.064-2.17A9.747,9.747,0,0,1,0,76.326Z" transform="translate(0 11.135)" fill="#4c5054"/>
      <rect id="Retângulo_1447" data-name="Retângulo 1447" width="105.888" height="105.888" transform="translate(0.233)" fill="none"/>
    </g>
    <text id="Lorem_ipsum_dolor_sit_amet_consectetur_adipisicing_elit_sed_do_eiusmod_tempor_incididunt_ut_ero_labore_et_dolore_magna_aliqua._Ut_enim_ad_minim_veniam_quis_nostrud_exercitation_ullamco_poriti_laboris_nisi_ut_aliquip_ex_ea_commodo_consequat._Duis_aute_ir" data-name="Lorem ipsum dolor sit amet, consectetur adipisicing elit, sed do eiusmod tempor incididunt ut ero labore et dolore magna aliqua. Ut enim ad minim veniam, quis nostrud exercitation ullamco poriti laboris nisi ut aliquip ex ea commodo consequat. Duis aute ir" transform="translate(34 1597)" fill="#4c5054" font-size="18" font-family="BaiJamjuree-Regular, Bai Jamjuree"><tspan x="41.308" y="18">Lorem ipsum dolor sit amet, </tspan><tspan x="11.779" y="41">consectetur adipisicing elit, sed do </tspan><tspan x="19.024" y="64">eiusmod tempor incididunt ut ero </tspan><tspan x="19.168" y="87">labore et dolore magna aliqua. Ut </tspan><tspan x="8.26" y="110">enim ad minim veniam, quis nostrud </tspan></text>
    <g id="Grupo_105" data-name="Grupo 105">
      <g id="Retângulo_13" data-name="Retângulo 13" transform="translate(101 1950)" fill="#fff" stroke="#707070" stroke-width="1">
        <rect width="177" height="69" stroke="none"/>
        <rect x="0.5" y="0.5" width="176" height="68" fill="none"/>
      </g>
      <text id="Logo_partenaires" data-name="Logo partenaires" transform="translate(188 1991)" fill="#4c5054" font-size="16" font-family="BaiJamjuree-SemiBold, Bai Jamjuree" font-weight="600"><tspan x="-77.368" y="0">LOGO PARTENAIRES</tspan></text>
    </g>
    <text id="Logo_partenaires-2" data-name="Logo partenaires" transform="translate(188 2111)" fill="#4c5054" font-size="16" font-family="BaiJamjuree-SemiBold, Bai Jamjuree" font-weight="600"><tspan x="-77.368" y="0">LOGO PARTENAIRES</tspan></text>
    <text id="Logo_partenaires-3" data-name="Logo partenaires" transform="translate(188 2233)" fill="#4c5054" font-size="16" font-family="BaiJamjuree-SemiBold, Bai Jamjuree" font-weight="600"><tspan x="-77.368" y="0">LOGO PARTENAIRES</tspan></text>
    <text id="Logo_partenaires-4" data-name="Logo partenaires" transform="translate(181 2353)" fill="#4c5054" font-size="16" font-family="BaiJamjuree-SemiBold, Bai Jamjuree" font-weight="600"><tspan x="-77.368" y="0">LOGO PARTENAIRES</tspan></text>
    <text id="Lorem_ipsum_dolor_sit_amet_consectetur_adipisicing_elit_sed_do_eiusmod_tempor_incididunt_ut_ero_labore_et_dolore_magna_aliqua._Ut_enim_ad_minim_veniam_quis_nostrud_exercitation_ullamco_poriti_laboris_nisi_ut_aliquip_ex_ea_commodo_consequat._Duis_aute_ir-2" data-name="Lorem ipsum dolor sit amet, consectetur adipisicing elit, sed do eiusmod tempor incididunt ut ero labore et dolore magna aliqua. Ut enim ad minim veniam, quis nostrud exercitation ullamco poriti laboris nisi ut aliquip ex ea commodo consequat. Duis aute ir" transform="translate(32 202)" fill="#fff" font-size="18" font-family="BaiJamjuree-SemiBold, Bai Jamjuree" font-weight="600"><tspan x="37.096" y="18">Lorem ipsum dolor sit amet, </tspan><tspan x="5.857" y="41">consectetur adipisicing elit, sed do </tspan><tspan x="13.984" y="64">eiusmod tempor incididunt ut ero </tspan><tspan x="13.867" y="87">labore et dolore magna aliqua. Ut </tspan><tspan x="2.914" y="110">enim ad minim veniam, quis nostrud </tspan><tspan x="12.166" y="133">exercitation ullamco poriti laboris </tspan></text>
  </g>
</svg>
